<svg id="Layer_1" enable-background="new 0 0 512 512" height="512" viewBox="0 0 512 512" width="512" xmlns="http://www.w3.org/2000/svg"><g><g><path clip-rule="evenodd" d="m221.449 407.112 249.585-18.607c48.515-54.672 29.897-136.989-34.79-164.987l-113.171-39.863 3.163-1.619c-59.823-10.952-112.425 9.922-141.964 47.753-49.559 16.104-69.072 41.659-76.8 63.004-9.04 41.07-14.888 113.613 113.977 114.319z" fill="#db885e" fill-rule="evenodd"/></g><g><path clip-rule="evenodd" d="m59.853 331.154c-32.791 2.826-47.262 34.152-39.802 57.351l82.559 20.403 87.571-20.403c8.265-24.789-7.012-54.525-39.802-57.351-4.625-24.642-23.482-37.478-42.905-38.362-20.828-.971-42.31 11.777-47.621 38.362z" fill="#b3e59f" fill-rule="evenodd"/></g><g><path clip-rule="evenodd" d="m221.449 197.846c15.903-1.884 32.85-1.413 50.394 1.796l19.573 6.919c8.116-8.42 18.559-16.193 31.657-22.905l3.163-1.619c-39.623-7.273-76.084-.561-104.787 15.809z" fill="#c57142" fill-rule="evenodd"/></g><g><path clip-rule="evenodd" d="m423.981 268.298c26.316 32.709 29.27 80.816 5.609 120.208h41.443c48.515-54.672 29.897-136.989-34.79-164.987l-11.189 41.041c-.327 1.265-.685 2.501-1.073 3.738z" fill="#c57142" fill-rule="evenodd"/></g><g><path clip-rule="evenodd" d="m442.182 115.794-23.094 28.322 1.76 21.904 22.706-2.473 23.094-28.352c20.468 16.251 42.488-10.775 22.02-26.997-4.774-3.798-12.293-1.973-15.933-4.887-3.759-2.974-3.64-10.658-8.533-14.544-20.499-16.222-42.488 10.775-22.02 27.027z" fill="#efecff" fill-rule="evenodd"/></g><g><path clip-rule="evenodd" d="m132.356 354.913c-.03 11.747-1.671 23.052-4.625 33.592h62.449c8.265-24.789-7.012-54.525-39.802-57.351-.746-3.975-1.88-7.655-3.312-11.011-.388-.942-.835-1.884-1.283-2.797-6.325-12.542-17.216-20.285-29.21-23.258 9.936 16.987 15.784 37.861 15.784 60.442-.001.118-.001.266-.001.383z" fill="#95d6a4" fill-rule="evenodd"/></g><g><path clip-rule="evenodd" d="m323.073 183.655c-73.22 37.508-64.119 108.667-22.945 137.637 38.072 26.821 107.084 8.891 124.927-56.733l11.189-41.041 11.189-41.07c2.297-8.479.686-15.28-3.879-18.901l-24.466-19.431c-4.565-3.592-11.666-3.68-19.543.353l-73.309 37.567z" fill="#f8d2ab" fill-rule="evenodd"/></g><g><path clip-rule="evenodd" d="m300.129 321.292c38.072 26.821 107.084 8.891 124.927-56.733l11.189-41.041 11.189-41.07c2.297-8.479.686-15.28-3.879-18.901l-20.498-16.281c-.06 2.061-.388 4.269-1.044 6.624l-11.159 41.041-11.189 41.07c-17.575 64.535-84.588 82.935-123.048 57.999 5.49 10.834 13.576 20.285 23.512 27.292z" fill="#ffbb8b" fill-rule="evenodd"/></g><g><path clip-rule="evenodd" d="m430.993 153.831 12.561 9.716 23.094-28.352c20.468 16.251 42.488-10.775 22.02-26.997-.448-.353-.895-.648-1.372-.913.567 12.512-8.802 20.903-22.825 12.247-3.073-1.884-3.938-.118-6.385 2.797z" fill="#d5cef7" fill-rule="evenodd"/></g><g><path d="m237.496 117.573c-1.678 0-3.367-.543-4.786-1.665-8.689-6.867-21.247-25.559-6.584-47.146 9.392-13.825 3.154-19.441-1.859-23.954-.616-.553-1.156-1.045-1.592-1.475-3.037-2.997-3.07-7.889-.073-10.927 2.999-3.039 7.891-3.068 10.927-.073.294.29.662.617 1.077.99 5.261 4.736 21.27 19.147 4.303 44.123-4.435 6.527-5.2 12.661-2.343 18.752 2.186 4.658 5.691 7.56 5.725 7.588 3.348 2.646 3.917 7.504 1.271 10.852-1.524 1.929-3.784 2.935-6.066 2.935z" fill="#d5cef7"/></g><g><path d="m149.146 149.17c-1.688 0-3.388-.546-4.812-1.671-8.69-6.868-21.248-25.559-6.583-47.147 9.392-13.824 3.154-19.44-1.859-23.953-.616-.553-1.156-1.045-1.592-1.475-3.037-2.997-3.07-7.889-.073-10.927 2.999-3.038 7.89-3.068 10.927-.073.294.29.662.617 1.077.99 5.261 4.736 21.27 19.148 4.303 44.122-4.335 6.38-5.164 12.377-2.533 18.333 2.168 4.91 5.923 8.011 5.961 8.041 3.348 2.646 3.894 7.487 1.248 10.835-1.522 1.925-3.781 2.925-6.064 2.925z" fill="#d5cef7"/></g><path d="m105.115 328.079c-4.268 0-7.726 3.459-7.726 7.726v19.317l-17.211-7.652c-3.898-1.733-8.464.021-10.199 3.922-1.733 3.899.022 8.465 3.922 10.199l23.489 10.443v13.762c0 4.268 3.459 7.726 7.726 7.726 4.268 0 7.726-3.459 7.726-7.726v-49.991c-.001-4.267-3.46-7.726-7.727-7.726z" fill="#95d6a4"/><g><path clip-rule="evenodd" d="m256 416.504 215.213 28.028v18.666c0 10.275-8.533 18.695-18.946 18.695h-392.564c-10.413 0-18.917-8.42-18.917-18.695v-18.666z" fill="#a9aac9" fill-rule="evenodd"/></g><g><path clip-rule="evenodd" d="m387.551 444.532v18.666c0 1.825-.269 3.592-.776 5.27-2.327 7.743-9.607 13.425-18.171 13.425h83.662c10.413 0 18.946-8.42 18.946-18.695v-18.666h-23.661-32.371z" fill="#8080a4" fill-rule="evenodd"/></g><g><path clip-rule="evenodd" d="m512 395.071v21.433c0 15.427-12.8 28.028-28.405 28.028h-12.382-23.661-289.954-116.811-12.412c-15.605 0-28.375-12.601-28.375-28.028v-21.433c0-3.621 2.984-6.565 6.654-6.565h96.045 3.67 112.991 259.79 26.197c3.639 0 6.653 2.944 6.653 6.565z" fill="#ff9a9f" fill-rule="evenodd"/></g><g><path clip-rule="evenodd" d="m415.18 444.532h32.373 23.661 12.382c15.605 0 28.405-12.601 28.405-28.028v-21.433c0-3.621-3.014-6.565-6.654-6.565h-26.197-35.357v24.142c0 17.163-2.745 31.884-28.613 31.884z" fill="#ff8086" fill-rule="evenodd"/></g></g></svg>